<?xml version="1.0" standalone="no"?>
<!DOCTYPE svg PUBLIC "-//W3C//DTD SVG 20010904//EN"
 "http://www.w3.org/TR/2001/REC-SVG-20010904/DTD/svg10.dtd">
<svg version="1.0" xmlns="http://www.w3.org/2000/svg"
 width="507.000000pt" height="492.000000pt" viewBox="0 0 507.000000 492.000000"
 preserveAspectRatio="xMidYMid meet">

<g transform="translate(0.000000,492.000000) scale(0.100000,-0.100000)"
fill="#000000" stroke="none">
<path d="M2567 2969 c-504 -74 -915 -465 -1013 -964 -26 -130 -24 -360 4 -480
112 -492 481 -849 971 -940 107 -19 303 -19 417 0 575 101 996 599 997 1180 0
149 -15 250 -59 385 -119 363 -411 654 -771 770 -169 55 -380 73 -546 49z
m348 -193 c338 -61 622 -286 758 -600 38 -89 77 -228 77 -278 l0 -28 -274 0
-274 0 -13 38 c-50 154 -174 277 -323 317 -94 26 -231 17 -311 -19 -126 -57
-224 -163 -262 -282 l-17 -54 -274 0 -275 0 6 59 c13 121 83 298 170 426 91
134 270 282 420 349 72 32 174 63 247 75 86 14 257 12 345 -3z m-48 -752 c159
-77 203 -297 87 -433 -169 -197 -495 -78 -493 179 0 106 39 183 120 237 87 57
190 64 286 17z m-582 -376 c14 -63 68 -153 126 -210 247 -242 660 -144 772
183 l20 59 273 0 274 0 0 -29 c0 -50 -47 -215 -83 -294 -56 -122 -123 -216
-221 -312 -217 -212 -500 -312 -805 -284 -357 33 -685 268 -832 596 -35 78
-79 239 -79 289 l0 34 274 0 274 0 7 -32z"/>
<path d="M2710 1863 c-38 -15 -60 -47 -60 -87 1 -88 90 -128 151 -67 37 37 39
88 7 125 -23 26 -70 40 -98 29z"/>
</g>
</svg>
